<?xml version="1.0" standalone="no"?>
<!DOCTYPE svg PUBLIC "-//W3C//DTD SVG 20010904//EN"
 "http://www.w3.org/TR/2001/REC-SVG-20010904/DTD/svg10.dtd">
<svg version="1.0" xmlns="http://www.w3.org/2000/svg"
 width="2160.000000pt" height="2160.000000pt" viewBox="0 0 2160.000000 2160.000000"
 preserveAspectRatio="xMidYMid meet">

<g transform="translate(0.000000,2160.000000) scale(0.100000,-0.100000)"
fill="#000000" stroke="none">
<path d="M10705 18997 c-11 -7 -27 -20 -36 -29 -9 -10 -22 -18 -28 -18 -7 0
-22 -10 -35 -22 -38 -37 -79 -69 -106 -81 -14 -6 -32 -20 -41 -29 -9 -10 -21
-18 -28 -18 -6 0 -24 -13 -39 -30 -16 -16 -32 -30 -36 -30 -4 0 -18 -11 -32
-25 -14 -14 -29 -25 -33 -25 -7 0 -22 -11 -68 -50 -7 -5 -17 -10 -23 -10 -5 0
-10 -4 -10 -8 0 -5 -12 -15 -27 -23 -16 -8 -40 -26 -55 -41 -14 -16 -31 -28
-37 -28 -7 0 -22 -9 -34 -20 -61 -55 -81 -70 -94 -70 -8 0 -28 -13 -43 -30
-15 -16 -33 -30 -39 -30 -6 0 -24 -13 -39 -30 -16 -16 -34 -30 -41 -30 -6 0
-11 -4 -11 -8 0 -5 -12 -15 -27 -23 -16 -8 -33 -18 -40 -24 -7 -5 -19 -16 -27
-22 -8 -7 -20 -13 -25 -13 -6 0 -24 -13 -39 -30 -16 -16 -32 -30 -36 -30 -4 0
-18 -11 -32 -25 -14 -14 -29 -25 -34 -25 -5 0 -20 -11 -34 -25 -14 -14 -28
-25 -31 -25 -4 0 -21 -11 -39 -25 -18 -14 -36 -25 -40 -25 -3 0 -20 -13 -38
-30 -17 -16 -36 -30 -42 -30 -6 0 -18 -9 -26 -20 -8 -11 -18 -20 -23 -20 -4 0
-18 -9 -30 -21 -12 -11 -35 -28 -52 -36 -16 -9 -37 -24 -46 -34 -9 -11 -22
-19 -29 -19 -6 0 -25 -13 -40 -30 -15 -16 -32 -30 -37 -30 -5 0 -15 -9 -23
-20 -8 -11 -21 -20 -29 -20 -7 0 -21 -8 -30 -19 -9 -10 -31 -26 -48 -35 -18
-9 -33 -21 -33 -26 0 -6 -7 -10 -15 -10 -8 0 -15 -4 -15 -10 0 -5 -6 -10 -13
-10 -7 0 -19 -9 -27 -20 -8 -11 -21 -20 -28 -20 -8 0 -27 -13 -42 -30 -15 -16
-32 -30 -37 -30 -6 0 -18 -9 -29 -21 -10 -12 -32 -28 -49 -37 -16 -8 -37 -23
-46 -33 -9 -11 -23 -19 -30 -19 -8 0 -21 -9 -29 -20 -8 -11 -18 -20 -23 -20
-4 0 -19 -11 -33 -25 -14 -14 -29 -25 -33 -25 -7 0 -22 -11 -68 -50 -7 -5 -18
-10 -25 -10 -8 0 -20 -9 -28 -20 -8 -11 -18 -20 -22 -20 -5 0 -22 -13 -40 -30
-17 -16 -35 -30 -41 -30 -5 0 -17 -8 -26 -18 -9 -9 -43 -35 -76 -57 -33 -22
-67 -48 -76 -57 -9 -10 -22 -18 -29 -18 -6 0 -25 -13 -40 -30 -15 -16 -33 -30
-38 -30 -6 0 -12 -3 -14 -8 -5 -12 -107 -82 -119 -82 -6 0 -24 -13 -39 -30
-15 -16 -32 -30 -37 -30 -5 0 -15 -9 -23 -20 -8 -11 -20 -20 -26 -20 -6 0 -25
-13 -42 -30 -18 -16 -37 -30 -42 -30 -6 0 -22 -11 -36 -25 -14 -14 -30 -25
-35 -25 -6 0 -24 -13 -39 -30 -15 -16 -34 -30 -40 -30 -7 0 -20 -8 -29 -18 -9
-9 -33 -28 -53 -42 -21 -14 -38 -28 -38 -32 0 -5 -5 -8 -11 -8 -6 0 -17 -6
-24 -12 -34 -31 -45 -38 -56 -38 -6 0 -24 -13 -39 -30 -15 -16 -32 -30 -37
-30 -6 0 -18 -9 -28 -20 -10 -11 -22 -20 -27 -20 -5 0 -20 -11 -34 -25 -14
-14 -29 -25 -33 -25 -4 0 -18 -9 -30 -19 -22 -19 -22 -19 -2 -26 12 -3 21 -10
21 -15 0 -5 9 -12 20 -15 11 -4 32 -17 45 -31 13 -13 28 -24 32 -24 5 0 15 -9
23 -20 8 -11 21 -20 28 -20 8 0 27 -13 42 -30 15 -16 33 -30 39 -30 7 0 24
-11 39 -25 15 -14 30 -25 35 -25 4 0 19 -11 33 -25 14 -14 29 -25 34 -25 5 0
20 -11 34 -25 14 -14 29 -25 34 -25 5 0 23 -13 40 -30 18 -16 36 -30 41 -30 6
0 21 -11 35 -25 14 -14 29 -25 33 -25 5 0 25 -15 46 -32 l37 -33 1 -800 c1
-440 3 -792 6 -781 3 10 18 32 34 48 15 17 31 39 34 49 4 11 10 19 15 19 5 0
12 9 15 20 4 11 16 31 28 43 12 12 28 34 36 50 8 15 18 27 23 27 4 0 8 5 8 11
0 6 14 24 30 39 17 15 30 35 30 43 0 9 6 22 13 29 6 7 23 30 37 50 14 21 28
38 33 38 4 0 7 5 7 11 0 14 25 39 39 39 6 0 11 -9 11 -20 0 -11 5 -20 10 -20
6 0 10 -11 10 -24 0 -14 4 -27 9 -31 5 -3 13 -30 16 -60 4 -30 11 -55 16 -55
5 0 9 -11 9 -25 0 -14 5 -25 10 -25 6 0 10 -13 10 -30 0 -16 5 -30 10 -30 6 0
10 -13 10 -30 0 -16 5 -30 10 -30 6 0 10 -13 10 -30 0 -16 5 -30 10 -30 6 0
10 -11 10 -25 0 -14 5 -25 10 -25 6 0 10 -13 10 -30 0 -16 5 -30 10 -30 6 0
10 -13 10 -30 0 -16 5 -30 10 -30 6 0 10 -11 10 -24 0 -14 4 -27 9 -31 5 -3
13 -30 16 -60 4 -30 11 -55 16 -55 5 0 9 -13 9 -30 0 -16 5 -30 10 -30 6 0 10
-11 10 -25 0 -14 5 -25 10 -25 6 0 10 -13 10 -30 0 -16 5 -30 10 -30 6 0 10
-13 10 -30 0 -16 5 -30 10 -30 6 0 10 -10 10 -23 0 -13 4 -27 9 -32 5 -6 11
-21 14 -35 2 -14 5 118 6 293 0 174 4 317 7 317 12 0 48 -24 77 -51 16 -16 35
-29 41 -29 6 0 18 -9 26 -20 8 -11 18 -20 23 -20 4 0 20 -11 35 -25 15 -14 43
-36 62 -47 19 -12 37 -25 40 -28 3 -3 21 -17 40 -30 44 -31 66 -49 96 -77 13
-13 26 -23 30 -23 9 0 106 -71 125 -92 9 -10 21 -18 26 -18 6 0 24 -13 41 -30
18 -16 36 -30 42 -30 5 0 10 -4 10 -10 0 -5 6 -10 13 -10 7 0 19 -9 27 -20 8
-11 19 -20 25 -20 5 0 28 -16 50 -35 22 -19 43 -35 47 -35 5 0 22 -13 40 -30
17 -16 36 -30 42 -30 6 0 18 -9 26 -20 8 -11 18 -20 23 -20 5 0 15 -6 22 -12
22 -20 37 -31 75 -58 44 -31 66 -49 96 -77 13 -13 28 -23 34 -23 5 0 10 -4 10
-10 0 -5 6 -10 13 -10 7 0 19 -9 27 -20 8 -11 19 -20 24 -20 11 0 82 -52 133
-97 20 -18 42 -33 48 -33 6 0 17 -9 25 -20 8 -11 18 -20 23 -20 5 0 15 -6 22
-12 22 -20 37 -32 75 -58 19 -13 41 -30 48 -37 7 -7 26 -20 42 -30 17 -9 30
-21 30 -25 0 -4 5 -8 11 -8 6 0 23 -12 38 -27 14 -16 42 -37 60 -47 37 -20 52
-32 109 -83 20 -18 41 -33 47 -33 6 0 17 -9 25 -20 8 -11 19 -20 24 -20 11 0
82 -52 133 -97 20 -18 42 -33 48 -33 6 0 17 -9 25 -20 20 -27 42 -25 76 8 16
15 58 48 94 74 36 26 74 56 86 67 11 10 31 24 44 31 13 7 33 22 45 34 33 32
95 79 124 95 14 8 33 22 42 33 9 10 20 18 24 18 4 0 15 8 24 18 9 10 32 29 51
42 19 14 46 35 60 47 14 13 28 23 31 23 3 0 22 13 40 30 19 16 38 30 42 30 5
0 22 14 37 30 15 17 33 30 40 30 7 0 24 12 38 28 29 30 125 102 137 102 4 0
20 14 35 30 15 17 31 30 34 30 6 0 36 23 61 48 8 6 16 12 19 12 6 0 44 31 72
58 7 6 17 12 22 12 5 0 23 14 40 30 18 17 34 30 37 30 3 0 17 11 31 25 14 14
29 25 33 25 5 0 23 14 41 30 18 17 35 30 40 30 4 0 21 14 38 30 18 17 36 30
42 30 5 0 10 5 10 10 0 6 5 10 10 10 6 0 22 11 36 25 14 14 29 25 33 25 5 0
22 13 39 28 16 15 46 39 66 52 20 14 36 28 36 33 0 4 7 7 15 7 9 0 31 15 49
33 39 37 58 53 106 87 19 13 40 29 47 35 36 30 43 35 50 35 5 0 15 9 23 20 8
11 20 20 27 20 7 0 13 5 13 10 0 6 5 10 10 10 6 0 26 16 46 35 19 19 38 35 43
35 5 0 24 13 42 30 19 16 37 30 42 30 4 0 21 14 39 30 17 17 35 30 40 30 6 0
23 14 38 30 15 17 31 30 34 30 7 0 105 76 143 110 12 11 27 20 34 20 6 0 24
14 40 31 l29 31 0 458 c0 252 3 465 6 474 3 9 11 16 16 16 6 0 18 8 27 18 9
11 27 25 40 32 13 7 34 21 45 31 42 38 84 69 93 69 6 0 24 14 41 30 18 16 34
30 37 30 6 0 74 51 109 83 11 9 24 17 29 17 4 0 14 6 22 13 7 6 25 21 41 32
15 11 33 26 40 33 7 6 17 12 23 12 6 0 11 5 11 10 0 6 6 10 13 10 7 0 19 9 27
20 8 11 21 20 29 20 7 0 21 8 30 18 19 20 116 92 125 92 3 0 20 14 38 30 17
17 36 30 42 30 6 0 18 9 26 20 8 11 18 20 23 20 4 0 18 9 30 21 12 11 36 28
52 36 17 9 37 24 46 34 9 11 21 19 27 19 21 0 1 25 -38 50 -22 13 -40 28 -40
32 0 4 -7 8 -15 8 -8 0 -15 5 -15 10 0 6 -6 10 -13 10 -7 0 -19 9 -27 20 -8
11 -19 20 -25 20 -6 0 -17 9 -25 20 -8 11 -20 20 -28 20 -7 0 -23 9 -35 20
-30 27 -116 90 -123 90 -3 0 -19 14 -34 30 -15 17 -34 30 -42 30 -7 0 -20 9
-28 20 -8 11 -20 20 -27 20 -7 0 -13 3 -13 8 0 4 -21 20 -48 37 -26 16 -54 36
-62 45 -8 8 -27 21 -42 29 -16 8 -28 18 -28 23 0 4 -5 8 -11 8 -6 0 -24 14
-39 30 -15 17 -33 30 -40 30 -6 0 -18 6 -25 13 -31 27 -44 37 -50 37 -8 0 -86
60 -106 83 -9 9 -21 17 -26 17 -5 0 -18 8 -29 18 -24 22 -122 92 -129 92 -3 0
-19 14 -37 30 -17 17 -36 30 -42 30 -6 0 -18 9 -26 20 -8 11 -19 20 -24 20 -5
0 -16 8 -25 19 -9 10 -32 26 -51 36 -19 10 -37 21 -40 24 -3 4 -21 18 -40 31
-44 31 -66 49 -96 78 -13 12 -28 22 -34 22 -6 0 -25 13 -43 30 -18 16 -36 30
-41 30 -8 0 -53 33 -93 70 -12 11 -26 20 -31 20 -5 0 -23 14 -40 30 -18 17
-34 30 -37 30 -10 0 -90 55 -119 83 -16 15 -34 27 -40 27 -6 0 -18 9 -26 20
-8 11 -19 20 -25 20 -6 0 -17 9 -25 20 -8 11 -20 20 -28 20 -7 0 -24 11 -37
24 -13 13 -42 34 -65 47 -22 12 -40 26 -40 31 0 4 -5 8 -11 8 -6 0 -24 14 -39
30 -15 17 -34 30 -42 30 -7 0 -20 9 -28 20 -8 11 -20 20 -27 20 -7 0 -13 5
-13 10 0 6 -7 10 -15 10 -8 0 -15 4 -15 8 0 4 -15 16 -32 27 -18 10 -40 27
-49 37 -9 10 -22 18 -28 18 -7 0 -22 10 -35 23 -38 36 -66 57 -76 57 -6 0 -10
5 -10 10 0 6 -5 10 -11 10 -7 0 -19 8 -28 19 -9 10 -32 26 -51 36 -19 10 -42
26 -51 36 -9 11 -21 19 -28 19 -6 0 -11 4 -11 8 0 4 -14 16 -30 26 -17 9 -41
28 -55 42 -13 13 -29 24 -35 24 -6 0 -22 11 -36 25 -14 14 -28 25 -32 25 -4 0
-20 11 -36 25 -16 14 -33 25 -37 25 -4 0 -19 11 -33 25 -14 14 -30 25 -36 25
-5 0 -10 5 -10 10 0 6 -6 10 -13 10 -7 0 -19 9 -27 20 -8 11 -19 20 -25 20 -6
0 -22 11 -37 25 -15 14 -31 25 -35 25 -4 0 -21 12 -38 26 -16 14 -42 33 -57
42 -16 9 -28 20 -28 24 0 4 -5 8 -11 8 -7 0 -19 8 -28 18 -9 11 -27 25 -40 32
-14 7 -30 17 -35 21 -6 5 -40 30 -76 56 -36 26 -72 55 -81 65 -19 21 -26 21
-54 5z"/>
<path d="M10640 11930 c0 -5 -20 -10 -44 -10 -25 0 -48 -4 -51 -10 -3 -5 -17
-10 -30 -10 -13 0 -27 -4 -30 -10 -3 -5 -17 -10 -31 -10 -13 0 -24 -4 -24 -10
0 -5 -9 -10 -20 -10 -11 0 -20 -3 -20 -7 0 -5 -20 -16 -45 -26 -25 -11 -45
-23 -45 -28 0 -5 -7 -9 -16 -9 -8 0 -32 -17 -52 -39 -85 -89 -122 -130 -122
-136 0 -3 -9 -15 -20 -27 -11 -12 -20 -28 -20 -35 0 -7 -4 -13 -10 -13 -5 0
-10 -13 -10 -29 0 -16 -3 -31 -7 -33 -5 -1 -21 -43 -38 -93 -16 -49 -34 -93
-40 -97 -6 -5 -6 -8 1 -8 6 0 17 -13 24 -30 7 -16 17 -30 22 -30 6 0 8 -7 4
-15 -3 -8 -1 -15 4 -15 6 0 10 -9 10 -20 0 -11 5 -20 10 -20 6 0 10 -9 10 -20
0 -11 5 -20 10 -20 6 0 10 -7 10 -15 0 -8 4 -15 9 -15 5 0 15 -20 22 -45 7
-25 17 -45 21 -45 4 0 8 -7 8 -15 0 -8 5 -15 10 -15 6 0 10 -7 10 -15 0 -8 9
-31 21 -51 11 -21 18 -46 16 -56 -3 -11 0 -18 10 -18 9 0 13 -6 10 -15 -4 -8
-2 -17 3 -20 6 -4 10 -17 10 -31 0 -13 5 -24 10 -24 6 0 10 -13 10 -30 0 -16
5 -30 10 -30 6 0 10 -13 10 -30 0 -16 5 -30 10 -30 6 0 10 -11 10 -25 0 -14 5
-25 10 -25 6 0 10 -13 10 -30 0 -16 4 -30 9 -30 5 0 12 -16 15 -35 3 -19 9
-51 12 -70 3 -19 10 -35 15 -35 5 0 9 -16 9 -35 0 -26 3 -33 15 -29 8 4 15 17
15 29 0 13 4 26 9 29 5 4 12 25 16 49 4 23 10 47 14 52 11 18 31 80 31 98 0 9
5 17 10 17 6 0 10 14 10 30 0 17 4 30 8 30 4 0 13 21 20 48 8 26 18 55 23 64
5 10 9 27 9 38 0 11 5 20 10 20 6 0 10 14 10 30 0 17 5 30 10 30 6 0 10 11 10
25 0 14 5 25 10 25 6 0 10 7 10 15 0 8 5 15 10 15 6 0 10 9 10 20 0 21 24 100
43 140 6 14 29 42 50 63 37 36 40 37 108 37 46 0 84 -6 106 -17 37 -17 73 -65
73 -95 0 -10 5 -18 10 -18 6 0 10 -13 10 -30 0 -16 5 -30 10 -30 6 0 10 -11
10 -25 0 -14 5 -25 10 -25 6 0 10 -13 10 -30 0 -16 5 -30 10 -30 6 0 10 -13
10 -30 0 -16 5 -30 10 -30 6 0 10 -9 10 -19 0 -11 5 -23 10 -26 6 -3 10 -17
10 -30 0 -13 5 -27 10 -30 6 -3 10 -19 10 -36 0 -16 4 -29 8 -29 8 0 42 -106
42 -133 0 -9 5 -17 10 -17 6 0 10 -14 10 -31 0 -20 4 -29 12 -27 12 4 21 32
35 101 3 15 9 27 14 27 5 0 9 14 9 30 0 17 5 30 10 30 6 0 10 14 10 30 0 17 5
30 10 30 6 0 10 8 10 18 0 22 22 72 33 72 4 0 7 14 7 30 0 17 5 30 10 30 6 0
10 9 10 20 0 11 5 20 10 20 6 0 10 9 10 20 0 11 4 20 10 20 5 0 7 7 4 15 -4 8
1 17 10 21 9 3 13 10 10 15 -5 8 12 48 25 59 10 8 42 63 48 83 3 9 9 17 14 17
5 0 9 9 9 20 0 11 5 20 10 20 6 0 10 7 10 15 0 8 5 15 10 15 6 0 10 8 10 18 0
10 9 24 19 32 11 7 18 17 16 21 -6 9 22 64 40 79 17 14 20 40 5 40 -5 0 -10
11 -10 25 0 14 -4 25 -10 25 -5 0 -10 9 -10 19 0 11 -4 22 -9 26 -5 3 -13 19
-16 36 -7 30 -19 49 -60 94 -11 12 -25 31 -31 40 -6 10 -19 23 -29 29 -11 6
-31 23 -46 39 -15 15 -30 27 -34 27 -4 0 -15 8 -24 18 -9 11 -28 22 -43 26
-16 3 -28 11 -28 16 0 6 -9 10 -20 10 -11 0 -20 5 -20 10 0 6 -9 10 -19 10
-11 0 -23 5 -26 10 -3 6 -15 10 -26 10 -10 0 -19 5 -19 10 0 6 -13 10 -30 10
-16 0 -30 5 -30 10 0 6 -20 10 -45 10 -25 0 -45 5 -45 10 0 6 -70 10 -190 10
-120 0 -190 -4 -190 -10z"/>
</g>
</svg>
